<svg width="117" height="214" viewBox="0 0 117 214" fill="none" xmlns="http://www.w3.org/2000/svg">
<path fill-rule="evenodd" clip-rule="evenodd" d="M68.1748 29.6266C69.8026 26.3624 70.4945 22.6949 69.2003 19.1142C65.4715 8.79697 50.7699 15.0321 49.2751 21.102C47.7803 27.1719 51.9183 40.543 56.0443 40.5055C57.6897 40.4905 60.7081 38.7263 63.5063 35.956L65.3823 50.6199L77.7501 47.4602L68.1748 29.6266Z" fill="#D4A181"/>
<path fill-rule="evenodd" clip-rule="evenodd" d="M63.6865 29.9808C66.009 32.3958 68.7241 33.9676 70.8433 33.4263C74.8683 32.398 76.2883 26.5359 74.738 21.0193C74.6835 20.8254 74.6254 20.6339 74.5637 20.4449C79.6044 22.1429 84.429 26.7957 90.0628 25.3564C97.7275 23.3983 96.6291 7.88044 85.9204 10.6163C78.6376 12.4768 75.3398 14.4044 72.6733 16.6902C71.6044 15.2091 70.2892 14.0702 68.8838 13.3993C68.5283 13.176 68.0307 13.0025 67.4174 12.8805C67.0387 12.7925 66.6575 12.7395 66.2766 12.7237C64.2314 12.547 61.4052 12.7758 58.3646 13.4451C57.7968 13.5701 57.2428 13.7058 56.7058 13.8503C55.9365 11.1461 53.0168 9.54328 50.1761 10.269C47.3301 10.9961 45.6411 13.7853 46.4037 16.4989C47.1412 19.1232 49.9015 20.7157 52.6566 20.16C54.3389 20.2202 56.4296 20.0458 58.6834 19.6217C58.685 20.4473 58.8143 21.3528 59.0923 22.3422C59.3379 23.2159 59.6994 24.1166 60.15 25.0099C60.4773 24.343 61.0195 23.8238 61.6712 23.6573C63.4942 23.1916 65.165 24.2973 65.5917 25.8155C66.1332 27.7422 65.3582 29.4342 63.6865 29.9808Z" fill="white"/>
<path fill-rule="evenodd" clip-rule="evenodd" d="M93.5259 92.4276L73.9832 156.636L64.7912 204.844H55.5653L64.7748 92.4276H93.5259Z" fill="#BA8B72"/>
<path fill-rule="evenodd" clip-rule="evenodd" d="M102.309 92.4276C100.945 125.783 101.483 143.976 101.788 147.007C102.093 150.037 103.826 170.334 115.632 205.861H106.037C90.4007 171.779 84.9423 151.482 83.149 147.007C81.3557 142.531 76.0592 124.338 68.3266 92.4276H102.309Z" fill="#D4A181"/>
<path fill-rule="evenodd" clip-rule="evenodd" d="M93.9453 92.4276C88.8619 114.522 80.0699 149.79 67.5692 198.231H54.0752C53.0785 148.511 57.3184 115.786 64.6607 92.4276H93.9453Z" fill="#69A1AC"/>
<path fill-rule="evenodd" clip-rule="evenodd" d="M102.377 92.4276C101.041 125.783 104.502 158.645 115.223 198.751H100.826C85.1612 165.177 73.9338 132.477 66.2607 92.4276H102.377Z" fill="#89C5CC"/>
<path fill-rule="evenodd" clip-rule="evenodd" d="M117 212.474L116.471 204.335C113.371 205.2 109.488 204.861 104.822 203.318C99.8058 206.706 93.4906 209.019 85.8768 210.258C85.2959 210.353 84.9053 210.878 85.0045 211.432C85.0109 211.468 85.0193 211.504 85.0297 211.539L85.7617 214H104.822H115.941L117 212.474Z" fill="white"/>
<path fill-rule="evenodd" clip-rule="evenodd" d="M66.8506 212.474L66.3211 204.335C63.2212 205.2 59.3385 204.861 54.673 203.318C49.6564 206.706 43.3412 209.019 35.7274 210.258C35.1465 210.353 34.7559 210.878 34.8551 211.432C34.8615 211.468 34.8699 211.504 34.8803 211.539L35.6123 214H54.673H65.7917L66.8506 212.474Z" fill="white"/>
<path fill-rule="evenodd" clip-rule="evenodd" d="M55.3529 63.8318L35.3552 57.3746C31.6876 54.4508 28.2065 52.2865 24.9118 50.8816C23.9462 50.6748 22.3334 50.7225 24.2645 52.9643C26.1957 55.2062 28.1213 57.6471 27.5138 58.5399C26.9063 59.4327 24.8396 58.6756 24.1812 60.1C23.7424 61.0496 27.1828 61.8548 34.5026 62.5155L49.893 71.8557L55.3529 63.8318ZM28.2771 76.6686L19.4906 73.8196C17.6125 69.9307 15.8895 68.1049 14.3216 68.3421C13.0222 68.0113 16.0664 72.8124 13.7073 72.7483C11.3482 72.6842 5.06343 69.6783 4.25401 70.6392C3.05654 72.0608 4.99151 75.4825 6.81381 77.0401C10.2197 79.9512 12.736 80.7194 18.707 81.2756C21.829 81.5664 25.3394 82.6112 29.2384 84.4099L28.2771 76.6686Z" fill="#D4A181"/>
<path fill-rule="evenodd" clip-rule="evenodd" d="M63.8418 60.2173C57.4423 61.2268 48.6866 61.3726 38.5807 57.4L36.4149 65.5893C43.781 70.4673 53.4974 73.8592 61.1669 72.357C67.2108 71.1732 69.0197 63.6462 63.8418 60.2173Z" fill="#2026A2"/>
<path fill-rule="evenodd" clip-rule="evenodd" d="M57.4917 73.8341C51.0087 76.5866 39.2853 76.5969 22.3216 73.8649C19.8066 82.3403 19.006 88.2157 19.9198 91.4913C34.8742 96.009 47.1728 97.0765 56.879 95.6517C57.5834 101.174 59.2443 106.261 62.4697 110.623C69.1007 119.59 95.6662 105.787 105.491 105.973C108.032 86.5611 95.1512 81.0114 92.9632 69.2319C90.5671 56.3321 76.0295 38.3002 74.431 38.569L59.8528 41.0198C60.8706 51.0081 58.8303 62.5477 57.4917 73.8341Z" fill="#1F28CF"/>
</svg>
