<svg width="177" height="271" viewBox="0 0 177 271" fill="none" xmlns="http://www.w3.org/2000/svg">
<path fill-rule="evenodd" clip-rule="evenodd" d="M70.6139 29.8869C66.7445 27.1935 63.6315 23.4657 62.7305 18.6102C60.1344 4.62022 80.1109 2.60985 85.6428 8.56391C91.1747 14.518 95.2933 32.2202 90.7897 34.7244C88.9937 35.7231 84.5805 35.5874 79.7586 34.1759L87.1655 51.9468L71.7033 56.0009L70.6139 29.8869Z" fill="#B28B67"/>
<path fill-rule="evenodd" clip-rule="evenodd" d="M76.0598 16.7356C78.7826 24.7945 81.4137 28.4911 83.9532 27.8252C87.7625 26.8264 90.3695 23.5697 92.041 23.1314C93.2594 22.812 93.3815 24.4024 92.866 25.7405C92.4407 26.8444 89.4281 28.5909 89.8018 30.0316C90.1756 31.4722 92.4502 29.6855 92.6719 30.5399C93.0385 31.9532 94.1785 34.4923 91.7164 35.1379C89.2247 35.7912 81.8459 36.7597 79.6657 33.3963C78.2588 31.2256 76.4696 26.4323 74.2984 19.0163C74.1426 19.038 73.9864 19.0692 73.8304 19.1101C71.6955 19.6698 70.4122 21.8478 70.9639 23.9748C71.244 25.0546 71.9432 25.9136 72.8432 26.4245C72.275 27.9169 71.6135 29.4936 70.8166 31.1506C65.8322 29.7027 60.6712 22.9915 63.0083 14.6318C63.2526 10.7726 65.4001 8.18243 68.2892 6.48366C70.5418 4.76894 73.1327 3.96285 75.5096 4.01356C79.9441 3.24681 84.16 3.54906 85.461 4.04391C86.5225 8.13598 86.0417 9.55875 79.2163 11.234C77.774 12.5508 76.8825 14.4008 76.0598 16.7356Z" fill="#191847"/>
<path fill-rule="evenodd" clip-rule="evenodd" d="M78.8571 110.076L110.982 193.113L132.432 263.275L141.086 263.333L108.6 110.274L78.8571 110.076Z" fill="#997659"/>
<path fill-rule="evenodd" clip-rule="evenodd" d="M72.2769 110.032C71.7345 139.132 66.3981 178.281 65.5752 180.09C65.0266 181.296 46.2645 196.551 9.28873 225.856L15.207 232.283C58.7713 207.237 81.5688 193.031 83.5995 189.665C86.6455 184.617 96.7636 138.039 104.823 110.249L72.2769 110.032Z" fill="#B28B67"/>
<path fill-rule="evenodd" clip-rule="evenodd" d="M8.46638 223.705C6.45967 224.403 5.07608 225.068 4.31562 225.701C3.39072 226.47 2.1686 227.748 0.649254 229.535C1.53736 230.613 9.5189 240.306 24.5939 258.612C27.7014 257.3 28.6839 255.747 27.5414 253.954C26.399 252.161 25.4642 250.66 24.7372 249.45L19.602 230.948C19.5032 230.592 19.136 230.384 18.7818 230.483C18.7758 230.485 18.7697 230.486 18.7637 230.488L15.9518 231.364C14.0112 230.439 12.6529 229.506 11.877 228.563C11.2466 227.798 10.6836 226.485 10.188 224.624L10.188 224.624C9.99777 223.91 9.26768 223.486 8.55727 223.677C8.52665 223.685 8.49634 223.695 8.46638 223.705Z" fill="#E4E4E4"/>
<path fill-rule="evenodd" clip-rule="evenodd" d="M128.909 260.085C128.151 262.078 127.768 263.571 127.762 264.564C127.754 265.771 127.942 267.533 128.326 269.851C129.719 269.86 142.236 269.944 165.878 270.102C166.876 266.866 166.324 265.111 164.223 264.838C162.123 264.566 160.378 264.321 158.988 264.103L141.587 256.165C141.252 256.012 140.857 256.161 140.705 256.498C140.703 256.504 140.7 256.509 140.698 256.515L139.558 259.243C137.605 260.143 136.021 260.589 134.804 260.581C133.815 260.574 132.452 260.164 130.716 259.35L130.716 259.35C130.049 259.037 129.257 259.327 128.946 259.997C128.933 260.026 128.92 260.055 128.909 260.085Z" fill="#E4E4E4"/>
<path fill-rule="evenodd" clip-rule="evenodd" d="M99.8556 255.845L141.034 251.649L111.481 110.294L74.6254 110.048L99.8556 255.845Z" fill="#69A1AC"/>
<path fill-rule="evenodd" clip-rule="evenodd" d="M17.8691 215.608L44.6465 247.778C73.2833 216.877 89.9931 196.701 94.7758 187.25C99.5585 177.799 103.973 152.139 108.018 110.271L66.5255 109.993C64.2224 146.836 62.707 166.112 61.9795 167.823C61.2519 169.533 46.5484 185.461 17.8691 215.608Z" fill="#89C5CC"/>
<path fill-rule="evenodd" clip-rule="evenodd" d="M129.926 95.0601L153.457 106.873C159.395 107.438 164.461 108.537 168.656 110.169C169.694 110.836 171.062 112.312 167.281 112.661C163.5 113.01 159.538 113.547 159.237 114.908C158.937 116.269 161.453 117.408 160.701 119.303C160.2 120.567 156.437 118.253 149.411 112.362L127.226 107.294L129.926 95.0601ZM49.6175 109.288L63.3447 107.005C59.4839 135.798 57.357 151.089 56.9639 152.877C56.0796 156.901 60.2604 162.088 62.1544 164.936C58.0151 167.702 57.2414 160.2 52.0367 163.79C47.2861 167.068 44.0973 172.082 37.5221 169.421C36.7137 169.094 35.6245 167.529 37.3391 165.869C41.6108 161.733 47.594 154.75 48.2128 152.681C49.0567 149.86 49.5249 135.396 49.6175 109.288Z" fill="#B28B67"/>
<path fill-rule="evenodd" clip-rule="evenodd" d="M78.8983 45.0695L84.4105 43.1286C108.539 57.7387 123.082 91.2259 152.019 105.348L147.103 114.111C101.383 116.194 83.0954 75.4411 78.8983 45.0695Z" fill="#0077B6"/>
<path fill-rule="evenodd" clip-rule="evenodd" d="M66.179 120.638C88.9392 116.76 105.681 113.908 116.405 112.081C118.7 111.69 117.709 108.449 117.095 106.833C110.013 88.1803 91.5586 69.9173 86.9272 42.4377L72.0567 42.6335C63.3226 63.952 63.1787 88.3919 66.179 120.638Z" fill="#DDE3E9"/>
<path fill-rule="evenodd" clip-rule="evenodd" d="M57.1605 64.6637C54.9544 64.4172 53.0503 63.2901 51.4483 61.2823C44.5424 52.6274 45.5679 47.0398 50.9353 44.3461C56.3027 41.6524 61.9497 44.3554 70.9658 42.8193C71.4563 42.7358 71.9106 42.69 72.3289 42.682L76.9078 42.1682C97.3547 84.0627 105.904 112.882 102.554 128.625L63.0227 135.36C61.6012 141.222 60.1346 146.2 58.6227 150.294L47.8511 152.129C41.3116 119.516 44.4147 90.3605 57.1605 64.6637Z" fill="#90E0EF"/>
<path fill-rule="evenodd" clip-rule="evenodd" d="M67.8129 111.239C70.8098 121.432 74.1032 128.639 77.6932 132.861L63.0227 135.36C64.6809 128.522 66.2776 120.482 67.8129 111.239Z" fill="black" fill-opacity="0.1"/>
</svg>
