<svg width="196" height="77" viewBox="0 0 196 77" fill="none" xmlns="http://www.w3.org/2000/svg">
<rect y="14" width="23" height="57" fill="black"/>
<rect x="30" width="23" height="57" fill="#0752B0"/>
<rect x="60" y="20" width="23" height="57" fill="black"/>
<path d="M96.39 56.3C94.13 56.3 92.17 55.87 90.51 55.01C88.85 54.15 87.58 52.91 86.7 51.29C85.82 49.67 85.38 47.75 85.38 45.53C85.38 43.31 85.82 41.39 86.7 39.77C87.58 38.13 88.84 36.88 90.48 36.02C92.14 35.14 94.09 34.7 96.33 34.7C98.19 34.7 99.91 35.02 101.49 35.66C103.07 36.3 104.24 37.15 105 38.21C105.24 38.53 105.36 38.86 105.36 39.2C105.36 39.7 105.09 40.15 104.55 40.55C104.31 40.73 104.01 40.82 103.65 40.82C103.35 40.82 103.05 40.76 102.75 40.64C102.45 40.5 102.2 40.31 102 40.07C101.32 39.29 100.53 38.73 99.63 38.39C98.73 38.03 97.63 37.85 96.33 37.85C94.15 37.85 92.45 38.53 91.23 39.89C90.01 41.23 89.4 43.11 89.4 45.53C89.4 47.93 90.01 49.8 91.23 51.14C92.47 52.48 94.19 53.15 96.39 53.15C98.91 53.15 100.92 52.41 102.42 50.93C103.04 50.35 103.61 50.06 104.13 50.06C104.49 50.06 104.82 50.18 105.12 50.42C105.58 50.82 105.81 51.26 105.81 51.74C105.81 52.1 105.68 52.45 105.42 52.79C104.56 53.89 103.33 54.75 101.73 55.37C100.15 55.99 98.37 56.3 96.39 56.3ZM115.663 56.3C115.063 56.3 114.583 56.14 114.223 55.82C113.863 55.5 113.683 55.06 113.683 54.5V36.5C113.683 35.94 113.863 35.5 114.223 35.18C114.583 34.86 115.063 34.7 115.663 34.7C116.263 34.7 116.743 34.87 117.103 35.21C117.483 35.53 117.673 35.96 117.673 36.5V43.67H128.443V36.5C128.443 35.96 128.623 35.53 128.983 35.21C129.363 34.87 129.853 34.7 130.453 34.7C131.053 34.7 131.533 34.86 131.893 35.18C132.253 35.5 132.433 35.94 132.433 36.5V54.5C132.433 55.06 132.253 55.5 131.893 55.82C131.533 56.14 131.053 56.3 130.453 56.3C129.853 56.3 129.363 56.14 128.983 55.82C128.623 55.48 128.443 55.04 128.443 54.5V46.76H117.673V54.5C117.673 55.04 117.483 55.48 117.103 55.82C116.743 56.14 116.263 56.3 115.663 56.3ZM145.402 56C143.882 56 142.702 55.6 141.862 54.8C141.022 54 140.602 52.88 140.602 51.44V39.44C140.602 38.04 141.002 36.95 141.802 36.17C142.622 35.39 143.752 35 145.192 35H154.522C155.122 35 155.582 35.14 155.902 35.42C156.222 35.68 156.382 36.06 156.382 36.56C156.382 37.04 156.212 37.42 155.872 37.7C155.552 37.96 155.102 38.09 154.522 38.09H145.882C145.482 38.09 145.162 38.22 144.922 38.48C144.702 38.74 144.592 39.1 144.592 39.56V43.73H152.242C152.842 43.73 153.302 43.87 153.622 44.15C153.942 44.41 154.102 44.79 154.102 45.29C154.102 45.77 153.932 46.15 153.592 46.43C153.272 46.69 152.822 46.82 152.242 46.82H144.592V51.44C144.592 51.9 144.702 52.26 144.922 52.52C145.162 52.78 145.482 52.91 145.882 52.91H155.182C155.782 52.91 156.242 53.05 156.562 53.33C156.882 53.59 157.042 53.97 157.042 54.47C157.042 54.95 156.872 55.33 156.532 55.61C156.212 55.87 155.762 56 155.182 56H145.402ZM167.794 56.3C167.194 56.3 166.714 56.14 166.354 55.82C165.994 55.5 165.814 55.06 165.814 54.5V36.5C165.814 35.94 165.994 35.5 166.354 35.18C166.714 34.86 167.194 34.7 167.794 34.7C168.374 34.7 168.854 34.86 169.234 35.18C169.614 35.5 169.804 35.94 169.804 36.5V54.5C169.804 55.06 169.614 55.5 169.234 55.82C168.854 56.14 168.374 56.3 167.794 56.3ZM180.835 56.3C180.235 56.3 179.755 56.14 179.395 55.82C179.035 55.5 178.855 55.06 178.855 54.5V39.44C178.855 38.04 179.255 36.95 180.055 36.17C180.875 35.39 182.005 35 183.445 35H192.775C193.375 35 193.835 35.14 194.155 35.42C194.475 35.68 194.635 36.06 194.635 36.56C194.635 37.04 194.465 37.42 194.125 37.7C193.805 37.96 193.355 38.09 192.775 38.09H184.135C183.735 38.09 183.415 38.22 183.175 38.48C182.955 38.74 182.845 39.1 182.845 39.56V44.03H190.495C191.095 44.03 191.555 44.17 191.875 44.45C192.195 44.71 192.355 45.09 192.355 45.59C192.355 46.07 192.185 46.45 191.845 46.73C191.525 46.99 191.075 47.12 190.495 47.12H182.845V54.5C182.845 55.04 182.655 55.48 182.275 55.82C181.915 56.14 181.435 56.3 180.835 56.3Z" fill="black"/>
</svg>
